<svg baseProfile="tiny" id="Ebene_1" xmlns="http://www.w3.org/2000/svg" width="47.309" height="47.311" viewBox="0 0 47.309 47.311"><path d="M25.572 47.306c-2.213-10.753-5.755-22.932-1.611-38.41-.379 3.021-.647 5.981-.765 9.002 2.362-1.768 3.974-3.753 5.044-6.15-.932 2.941-2.423 5.556-5.098 7.793-.047 2.892.358 5.788.826 8.644 4.875-2.824 7.598-5.918 9.065-10.302-.818 3.322-2.126 6.267-4.512 8.771-1.304 1.349-2.719 2.527-4.196 3.632 1.019 5.774 2.99 11.418 4.699 17.021h-3.452zm-4.873-22.098c.034-.839.095-1.674.171-2.507-2.57-3.054-4.164-6.493-5.119-10.956.417 3.646 1.075 7.308 2.964 10.521a29.72 29.72 0 0 0 1.984 2.942z"/><path fill="#FFF" d="M41.053 17.4c0-9.609-7.791-17.399-17.399-17.399-9.609 0-17.4 7.79-17.4 17.399 0 7.858 5.211 14.487 12.364 16.647-.108 4.411.146 8.851.35 13.258h3.239c-.743-5.687-1.622-11.366-1.597-17.071.007-1.674.019-3.361.091-5.046a29.213 29.213 0 0 1-1.985-2.923c-1.889-3.213-2.547-6.874-2.964-10.521 1.255 3.116 2.677 6.111 5.017 8.58.117.113.237.222.354.332.068-.464.117-.932.208-1.394.687-3.538 1.583-6.92 2.631-10.368-.321 2.56-.565 5.072-.707 7.617 2.012-1.32 3.59-2.862 4.987-4.766-.932 2.943-2.423 5.556-5.099 7.793-.036 2.232.205 4.466.528 6.683.958-.401 1.896-.852 2.78-1.395 2.925-1.795 4.896-3.981 6.584-6.946-.818 3.322-2.126 6.267-4.512 8.771-1.304 1.348-2.721 2.521-4.196 3.626 1.019 5.775 2.99 11.421 4.699 17.027h3.596c-1.692-4.282-3.593-8.571-5.115-12.953 7.752-1.755 13.546-8.667 13.546-16.951z"/></svg>